<svg xmlns="http://www.w3.org/2000/svg" width="38" height="37" viewBox="0 0 38 37"><defs><style>.a{fill:#333;}.b,.d{fill:none;}.b{stroke:#333;stroke-linecap:round;stroke-width:3px;stroke-dasharray:112 10;}.c{stroke:none;}</style></defs><g transform="translate(0.365)"><g transform="translate(8.253 8.153)"><path class="a" d="M20.963,21.839v7.75H16.47V22.358c0-1.817-.65-3.056-2.276-3.056a2.458,2.458,0,0,0-2.305,1.644,3.074,3.074,0,0,0-.149,1.1v7.548H7.245s.061-12.247,0-13.516h4.494v1.916c-.009.014-.021.03-.03.044h.03v-.044a4.462,4.462,0,0,1,4.05-2.233C18.746,15.756,20.963,17.688,20.963,21.839ZM2.543,9.558a2.342,2.342,0,1,0-.06,4.671h.03a2.343,2.343,0,1,0,.03-4.671ZM.267,29.589H4.76V16.073H.267Z" transform="translate(0 -9.558)"/></g><g class="b" transform="translate(-0.365)"><rect class="c" width="38" height="37" rx="5"/><rect class="d" x="1.5" y="1.5" width="35" height="34" rx="3.5"/></g></g></svg>