<?xml version="1.0" encoding="utf-8"?>
<!-- Generator: Adobe Illustrator 24.0.1, SVG Export Plug-In . SVG Version: 6.00 Build 0)  -->
<svg version="1.1" id="Camada_1" xmlns="http://www.w3.org/2000/svg" xmlns:xlink="http://www.w3.org/1999/xlink" x="0px" y="0px"
	 viewBox="0 0 37 37" enable-background="new 0 0 37 37" xml:space="preserve">
<g>
	<path fill="#00995D" d="M32,37H5c-2.8,0-5-2.2-5-5V5c0-2.8,2.2-5,5-5h27c2.8,0,5,2.2,5,5v27C37,34.8,34.8,37,32,37z"/>
</g>
<g transform="translate(0.365)">
	<g transform="translate(8.253 8.153)">
		<path fill="#FFFFFF" d="M20.4,12.6v7.8h-4.5v-7.2c0-1.8-0.6-3.1-2.3-3.1c-1,0-2,0.7-2.3,1.6c-0.1,0.4-0.2,0.7-0.1,1.1v7.5H6.6
			c0,0,0.1-12.2,0-13.5h4.5v1.9c0,0,0,0,0,0h0v0c0.8-1.4,2.4-2.3,4.1-2.2C18.1,6.5,20.4,8.5,20.4,12.6z M1.9,0.3
			C0.7,0.2-0.5,1.2-0.6,2.5S0.3,4.9,1.5,5c0.1,0,0.2,0,0.3,0h0c1.3,0.1,2.4-0.8,2.5-2.1c0.1-1.3-0.8-2.4-2.1-2.5
			C2.2,0.3,2.1,0.3,1.9,0.3z M-0.3,20.4h4.5V6.8h-4.5V20.4z"/>
	</g>
</g>
</svg>
