<?xml version="1.0" encoding="utf-8"?>
<!-- Generator: Adobe Illustrator 24.0.1, SVG Export Plug-In . SVG Version: 6.00 Build 0)  -->
<svg version="1.1" id="Camada_1" xmlns="http://www.w3.org/2000/svg" xmlns:xlink="http://www.w3.org/1999/xlink" x="0px" y="0px"
	 viewBox="0 0 37 37" enable-background="new 0 0 37 37" xml:space="preserve">
<g>
	<path fill="#00995D" d="M32,37H5c-2.8,0-5-2.2-5-5V5c0-2.8,2.2-5,5-5h27c2.8,0,5,2.2,5,5v27C37,34.8,34.8,37,32,37z"/>
</g>
<g>
	<g transform="translate(0 2.3)">
		<path fill="#FFFFFF" d="M26,16.2c-0.6-4.2-4.5-7.1-8.8-6.5c-4.2,0.6-7.1,4.5-6.5,8.8c0.6,3.8,3.8,6.6,7.6,6.6c0.4,0,0.8,0,1.1-0.1
			C23.7,24.3,26.6,20.4,26,16.2C26,16.2,26,16.2,26,16.2L26,16.2z M19.1,22.2c-2.7,0.4-5.2-1.5-5.6-4.2s1.5-5.2,4.2-5.6
			c2.7-0.4,5.2,1.5,5.6,4.1C23.6,19.3,21.8,21.8,19.1,22.2C19.1,22.2,19.1,22.2,19.1,22.2L19.1,22.2z"/>
	</g>
	<g transform="translate(14.932 0)">
		<path fill="#FFFFFF" d="M13,10.1c-0.5-0.5-1.4-0.5-2,0c-0.5,0.5-0.5,1.4,0,2s1.4,0.5,2,0c0.3-0.3,0.4-0.6,0.4-1
			C13.4,10.7,13.3,10.3,13,10.1z"/>
	</g>
</g>
</svg>
