<?xml version="1.0" encoding="utf-8"?>
<!-- Generator: Adobe Illustrator 24.0.1, SVG Export Plug-In . SVG Version: 6.00 Build 0)  -->
<svg version="1.1" id="Camada_1" xmlns="http://www.w3.org/2000/svg" xmlns:xlink="http://www.w3.org/1999/xlink" x="0px" y="0px"
	 viewBox="0 0 37 37" enable-background="new 0 0 37 37" xml:space="preserve">
<g>
	<path fill="#00995D" d="M32,37H5c-2.8,0-5-2.2-5-5V5c0-2.8,2.2-5,5-5h27c2.8,0,5,2.2,5,5v27C37,34.8,34.8,37,32,37z"/>
</g>
<path fill="#FFFFFF" d="M24.1,7.2h-2.9c-3.3,0-5.4,2.2-5.4,5.5v2.6h-2.9c-0.3,0-0.5,0.2-0.5,0.5c0,0,0,0,0,0v3.7
	c0,0.3,0.2,0.5,0.5,0.5h2.9v9.3c0,0.3,0.2,0.5,0.5,0.5h3.8c0.3,0,0.5-0.2,0.5-0.5V20H24c0.3,0,0.5-0.2,0.5-0.5v-3.7
	c0-0.3-0.2-0.5-0.5-0.5h-3.4v-2.2c0-1,0.2-1.6,1.6-1.6h2c0.3,0,0.5-0.2,0.5-0.5V7.7C24.6,7.4,24.4,7.2,24.1,7.2
	C24.1,7.2,24.1,7.2,24.1,7.2z"/>
</svg>
